<?xml version="1.0" encoding="utf-8"?>
<!-- Generator: Adobe Illustrator 19.0.0, SVG Export Plug-In . SVG Version: 6.00 Build 0)  -->
<svg version="1.1" id="Calque_1" xmlns="http://www.w3.org/2000/svg" xmlns:xlink="http://www.w3.org/1999/xlink" x="0px" y="0px"
	 viewBox="0 0 67 67" style="enable-background:new 0 0 67 67;" xml:space="preserve">
<style type="text/css">
	.st0{fill-rule:evenodd;clip-rule:evenodd;fill:#FFFFFF;}
	.st1{fill:#FFFFFF;}
</style>
<path class="st0" d="M33.1,28.1L44.9,38c0.5,0.4,1.3,0.4,1.7-0.2c0.4-0.5,0.4-1.3-0.2-1.7L33.9,25.6c-0.2-0.2-0.5-0.3-0.8-0.3
	s-0.6,0.1-0.8,0.3L19.6,36.1c-0.5,0.4-0.6,1.2-0.2,1.7c0.4,0.5,1.2,0.6,1.7,0.2L33.1,28.1z"/>
<g id="XMLID_2_">
	<g>
		<path id="XMLID_43_" class="st1" d="M33.5,67C15,67,0,52,0,33.5S15,0,33.5,0C52,0,67,15,67,33.5S52,67,33.5,67z M33.5,2
			C16.1,2,2,16.1,2,33.5C2,50.9,16.1,65,33.5,65S65,50.9,65,33.5C65,16.1,50.9,2,33.5,2z"/>
	</g>
</g>
</svg>
